#!OML:ASF I:\Actors\actors\Patient Classification 2\Patient 1\Session 1\actor1.ASF
:FULLY-SPECIFIED
:DEGREES
338
root -1.422 18.6173 5.72807 0.799683 -8.2465 -8.16789
lowerback 10.3302 1.4146 -5.72718
upperback 5.14423 1.31153 -1.47737
thorax -0.513479 0.566274 1.54532
lowerneck -2.82414 2.7693 -2.31368
upperneck 45.5344 6.97757 -5.4119
head 17.5347 1.66407 -1.15112
rclavicle 3.81667e-014 1.59028e-015
rhumerus 14.1809 18.732 -41.3402
rradius 142.847
rwrist -24.346
rhand -0.133005 -27.5556
rfingers 7.12502
rthumb 25.463 -55.8746
lclavicle 3.81667e-014 1.59028e-015
lhumerus -38.4519 8.34164 80.2245
lradius 46.5571
lwrist -5.31225
lhand -4.77706 -25.5741
lfingers 7.12502
lthumb 21.0076 3.30809
rfemur 0 0 0
rtibia 0
rfoot 0 0
rtoes 0
lfemur -4.0718 -5.69274 -4.22889
ltibia 25.409
lfoot -24.0928 16.7294
ltoes -56.812
339
root -1.43062 18.6146 5.75924 0.67974 -7.62903 -8.16384
lowerback 9.90388 1.36425 -6.04556
upperback 5.41946 1.26692 -1.23083
thorax 0.000938945 0.517796 1.99396
lowerneck -3.05924 3.16493 -2.01654
upperneck 45.6044 7.46299 -5.15787
head 17.6482 1.94384 -1.01161
rclavicle -1.86858e-014 -1.11319e-014
rhumerus 15.0774 18.6604 -41.2065
rradius 142.72
rwrist -24.7045
rhand 0.520933 -27.7142
rfingers 7.12502
rthumb 26.0892 -55.9423
lclavicle -1.86858e-014 -1.11319e-014
lhumerus -38.233 8.9277 80.4918
lradius 46.8435
lwrist -5.2161
lhand -5.17416 -24.9992
lfingers 7.12502
lthumb 20.6261 3.92492
rfemur 0 0 0
rtibia 0
rfoot 0 0
rtoes 0
lfemur -4.11135 -6.00366 -4.19677
ltibia 25.4844
lfoot -23.9961 16.5453
ltoes -56.9689
340
root -1.44081 18.612 5.79005 0.585092 -6.97251 -8.16359
lowerback 10.2943 1.47562 -5.83681
upperback 5.1792 1.39278 -1.26454
thorax -0.469489 0.602097 1.81948
lowerneck -2.67158 3.43535 -1.69403
upperneck 45.8764 7.5513 -4.43167
head 17.6727 2.13073 -0.730135
rclavicle 2.78299e-015 2.54444e-014
rhumerus 14.7001 18.7452 -41.6013
rradius 142.764
rwrist -24.904
rhand 1.40506 -27.9359
rfingers 7.12502
rthumb 26.9355 -56.0363
lclavicle 2.78299e-015 2.54444e-014
lhumerus -38.5223 8.67452 80.5232
lradius 46.9843
lwrist -5.14452
lhand -5.67155 -24.8027
lfingers 7.12502
lthumb 20.1481 4.17247
rfemur 0 0 0
rtibia 0
rfoot 0 0
rtoes 0
lfemur -4.2083 -6.19635 -4.12696
ltibia 25.5684
lfoot -23.8481 16.2184
ltoes -57.0942
341
root -1.44968 18.6081 5.81972 0.46393 -6.31526 -8.2066
lowerback 10.4398 1.55123 -5.75676
upperback 5.1159 1.48906 -1.18152
thorax -0.622889 0.65607 1.84654
lowerneck -2.5182 3.70985 -1.33582
upperneck 46.1511 7.71578 -3.86143
head 17.7787 2.33113 -0.510148
rclavicle 1.31198e-014 7.95139e-015
rhumerus 14.6567 18.8404 -41.8366
rradius 142.78
rwrist -25.0867
rhand 2.0955 -27.927
rfingers 7.12502
rthumb 27.5959 -55.9237
lclavicle 1.31198e-014 7.95139e-015
lhumerus -38.6491 8.7786 80.5604
lradius 47.0005
lwrist -5.18087
lhand -6.0678 -25.099
lfingers 7.12502
lthumb 19.7672 3.91591
rfemur 0 0 0
rtibia 0
rfoot 0 0
rtoes 0
lfemur -4.2755 -6.37276 -4.0108
ltibia 25.6581
lfoot -23.7064 15.8279
ltoes -57.1701
342
root -1.45599 18.6038 5.84923 0.315533 -5.63129 -8.22424
lowerback 10.5132 1.60358 -5.74922
upperback 5.12298 1.55716 -1.066
thorax -0.663389 0.690374 1.95303
lowerneck -2.3998 3.95084 -0.854815
upperneck 46.312 7.8826 -3.50237
head 17.847 2.53197 -0.40665
rclavicle 7.95139e-016 -4.45278e-014
rhumerus 14.6868 18.9901 -42.0481
rradius 142.705
rwrist -25.2375
rhand 2.73821 -27.6687
rfingers 7.12502
rthumb 28.2104 -55.5655
lclavicle 7.95139e-016 -4.45278e-014
lhumerus -38.7376 8.95813 80.5773
lradius 46.9123
lwrist -5.08035
lhand -6.41502 -25.8509
lfingers 7.12502
lthumb 19.4334 3.19801
rfemur 0 0 0
rtibia 0
rfoot 0 0
rtoes 0
lfemur -4.32921 -6.62621 -3.94279
ltibia 25.7592
lfoot -23.5629 15.4938
ltoes -57.2931
343
root -1.46087 18.6002 5.88016 0.155947 -4.87418 -8.14201
lowerback 10.6282 1.65655 -5.74453
upperback 5.15819 1.62341 -0.985047
thorax -0.696272 0.723396 2.02475
lowerneck -2.36625 4.1445 -0.469577
upperneck 46.4405 7.95428 -3.04026
head 17.9007 2.69092 -0.247254
rclavicle 1.51076e-014 1.27222e-014
rhumerus 14.685 19.1036 -42.3205
rradius 142.54
rwrist -25.3771
rhand 3.46747 -27.5042
rfingers 7.12502
rthumb 28.9072 -55.2839
lclavicle 1.51076e-014 1.27222e-014
lhumerus -38.7357 9.12944 80.5775
lradius 46.7052
lwrist -4.97984
lhand -6.71649 -26.9393
lfingers 7.12502
lthumb 19.1435 2.13856
rfemur 0 0 0
rtibia 0
rfoot 0 0
rtoes 0
lfemur -4.41587 -6.90521 -3.98467
ltibia 25.8677
lfoot -23.3988 15.1281
ltoes -57.4442
344
root -1.46588 18.596 5.91192 -0.00929738 -4.10555 -8.0923
lowerback 10.7491 1.74307 -5.6621
upperback 5.2195 1.74239 -0.882935
thorax -0.708407 0.782725 2.06885
lowerneck -2.47746 4.31752 -0.279061
upperneck 46.6294 7.95055 -2.35248
head 17.9994 2.81017 0.048177
rclavicle -3.97569e-015 1.59028e-015
rhumerus 14.5917 19.1419 -42.6349
rradius 142.401
rwrist -25.5419
rhand 4.29817 -27.4881
rfingers 7.12502
rthumb 29.7003 -55.1292
lclavicle -3.97569e-015 1.59028e-015
lhumerus -38.6735 9.20292 80.6907
lradius 46.6768
lwrist -5.1239
lhand -6.92548 -27.233
lfingers 7.12502
lthumb 18.9425 1.86462
rfemur 0 0 0
rtibia 0
rfoot 0 0
rtoes 0
lfemur -4.50756 -7.07272 -3.97124
ltibia 25.9737
lfoot -23.1837 14.6761
ltoes -57.6374
345
root -1.46945 18.5918 5.9447 -0.168954 -3.34168 -8.07482
lowerback 10.8224 1.83702 -5.57077
upperback 5.25702 1.87501 -0.770589
thorax -0.720695 0.849413 2.11753
lowerneck -2.37048 4.43364 0.0733919
upperneck 46.7138 7.85201 -1.77376
head 17.9917 2.91356 0.242954
rclavicle 2.66371e-014 -7.4743e-014
rhumerus 14.2733 19.2596 -43.0686
rradius 142.315
rwrist -25.6756
rhand 5.33113 -27.263
rfingers 7.12502
rthumb 30.6858 -54.7239
lclavicle 2.66371e-014 -7.4743e-014
lhumerus -38.7409 9.09007 80.8736
lradius 46.9122
lwrist -5.2029
lhand -7.10654 -26.668
lfingers 7.12502
lthumb 18.7683 2.44659
rfemur 0 0 0
rtibia 0
rfoot 0 0
rtoes 0
lfemur -4.59899 -7.20739 -3.93053
ltibia 26.0775
lfoot -22.9352 14.2364
ltoes -57.8888
346
root -1.47067 18.5879 5.97763 -0.328723 -2.55369 -8.01052
lowerback 10.9078 1.90912 -5.49941
upperback 5.27513 1.97517 -0.679172
thorax -0.757196 0.900804 2.15864
lowerneck -2.22473 4.54726 0.524179
upperneck 46.8247 7.76049 -1.26434
head 18.0053 3.02762 0.387758
rclavicle -1.63003e-014 2.8625e-014
rhumerus 13.7514 19.4348 -43.5808
rradius 142.32
rwrist -25.8316
rhand 6.33922 -26.7609
rfingers 7.12502
rthumb 31.6465 -54.0371
lclavicle -1.63003e-014 2.8625e-014
lhumerus -38.8786 9.02597 80.9936
lradius 47.0688
lwrist -4.9653
lhand -7.35044 -26.386
lfingers 7.12502
lthumb 18.5338 2.75111
rfemur 0 0 0
rtibia 0
rfoot 0 0
rtoes 0
lfemur -4.69606 -7.41673 -3.96399
ltibia 26.1884
lfoot -22.7114 13.8394
ltoes -58.1143
347
root -1.47242 18.5841 6.00856 -0.490288 -1.75763 -7.92179
lowerback 11.0602 1.99071 -5.39966
upperback 5.30226 2.08643 -0.592234
thorax -0.820597 0.95866 2.17587
lowerneck -2.17363 4.62927 0.959057
upperneck 47 7.6315 -0.754186
head 18.0861 3.12102 0.536026
rclavicle 1.19271e-014 1.11319e-014
rhumerus 13.1171 19.4807 -44.0787
rradius 142.434
rwrist -26.0119
rhand 7.21641 -26.4973
rfingers 7.12502
rthumb 32.4817 -53.6055
lclavicle 1.19271e-014 1.11319e-014
lhumerus -38.8896 9.21147 81.0307
lradius 46.9607
lwrist -4.93141
lhand -7.5875 -26.6428
lfingers 7.12502
lthumb 18.3057 2.51582
rfemur 0 0 0
rtibia 0
rfoot 0 0
rtoes 0
lfemur -4.80541 -7.63268 -4.02073
ltibia 26.3219
lfoot -22.5453 13.4261
ltoes -58.268
348
root -1.46772 18.5827 6.03456 -0.551975 -1.10714 -7.78699
lowerback 11.1636 2.11979 -5.22374
upperback 5.30411 2.26954 -0.55295
thorax -0.885148 1.05437 2.09261
lowerneck -2.10678 4.6844 1.41852
upperneck 47.1163 7.44587 -0.232184
head 18.1268 3.19993 0.676896
rclavicle -2.66371e-014 6.36111e-015
rhumerus 12.4702 19.4362 -44.6203
rradius 142.517
rwrist -26.0846
rhand 8.03665 -26.5974
rfingers 7.12502
rthumb 33.2619 -53.542
lclavicle -2.66371e-014 6.36111e-015
lhumerus -38.8976 9.25495 81.084
lradius 46.8956
lwrist -4.90171
lhand -7.84393 -26.9697
lfingers 7.12502
lthumb 18.059 2.21194
rfemur 0 0 0
rtibia 0
rfoot 0 0
rtoes 0
lfemur -4.98702 -7.86011 -4.16958
ltibia 26.4509
lfoot -22.4533 13.1311
ltoes -58.3228
349
root -1.4456 18.5855 6.05192 -0.437651 -0.761109 -7.6838
lowerback 11.1771 2.3151 -4.73905
upperback 5.23096 2.57268 -0.583466
thorax -0.972812 1.21666 1.75014
lowerneck -1.96648 4.71389 1.91482
upperneck 47.1579 7.21443 0.276674
head 18.1052 3.26867 0.794425
rclavicle 7.15625e-015 -1.27222e-014
rhumerus 11.8425 19.3835 -45.3067
rradius 142.549
rwrist -26.1509
rhand 8.88593 -26.6597
rfingers 7.12502
rthumb 34.0689 -53.4282
lclavicle 7.15625e-015 -1.27222e-014
lhumerus -39.0101 8.93654 81.244
lradius 47.0723
lwrist -4.54567
lhand -8.12673 -26.8057
lfingers 7.12502
lthumb 17.7869 2.40087
rfemur 0 0 0
rtibia 0
rfoot 0 0
rtoes 0
lfemur -5.29063 -8.10733 -4.38238
ltibia 26.5735
lfoot -22.4326 13.1374
ltoes -58.3035
350
root -1.44131 18.5835 6.08519 -0.551552 -0.0033589 -7.62278
lowerback 11.1982 2.41476 -4.44339
upperback 5.26844 2.73702 -0.51007
thorax -0.947636 1.30207 1.6405
lowerneck -1.8137 4.71632 2.36233
upperneck 47.1796 6.94037 0.810807
head 18.0653 3.31528 0.925433
rclavicle 2.14687e-014 7.95139e-015
rhumerus 11.2527 19.2514 -46.0715
rradius 142.561
rwrist -26.434
rhand 9.90262 -26.5959
rfingers 7.12502
rthumb 35.034 -53.144
lclavicle 2.14687e-014 7.95139e-015
lhumerus -39.1365 8.60115 81.4259
lradius 47.2779
lwrist -4.31867
lhand -8.37105 -26.0546
lfingers 7.12502
lthumb 17.5518 3.17311
rfemur 0 0 0
rtibia 0
rfoot 0 0
rtoes 0
lfemur -5.42549 -8.31187 -4.43182
ltibia 26.6839
lfoot -22.3049 12.7152
ltoes -58.3366
351
root -1.43697 18.581 6.1202 -0.721532 0.766964 -7.44743
lowerback 11.2814 2.50781 -4.27275
upperback 5.3102 2.87622 -0.467962
thorax -0.952588 1.37394 1.56907
lowerneck -1.67508 4.70569 2.78361
upperneck 47.2186 6.618 1.42394
head 18.0366 3.34549 1.09232
rclavicle 3.37934e-014 1.27222e-014
rhumerus 10.5501 19.1208 -46.8935
rradius 142.561
rwrist -26.8082
rhand 10.9596 -26.4553
rfingers 7.12502
rthumb 36.036 -52.7629
lclavicle 3.37934e-014 1.27222e-014
lhumerus -39.2448 8.34084 81.5214
lradius 47.34
lwrist -4.28253
lhand -8.63787 -25.4029
lfingers 7.12502
lthumb 17.295 3.84752
rfemur 0 0 0
rtibia 0
rfoot 0 0
rtoes 0
lfemur -5.49019 -8.43523 -4.60902
ltibia 26.7929
lfoot -22.1743 12.2102
ltoes -58.3466
352
root -1.43346 18.5792 6.15231 -0.843956 1.57381 -7.31883
lowerback 11.3472 2.60294 -4.09466
upperback 5.32961 3.01996 -0.40751
thorax -0.971586 1.44861 1.51185
lowerneck -1.51644 4.6379 3.30857
upperneck 47.2566 6.2113 1.98649
head 18.0159 3.35311 1.20517
rclavicle -2.06736e-014 7.95139e-015
rhumerus 9.696 19.0242 -47.7795
rradius 142.605
rwrist -27.0755
rhand 11.778 -26.4272
rfingers 7.12502
rthumb 36.8107 -52.5403
lclavicle -2.06736e-014 7.95139e-015
lhumerus -39.3961 8.03365 81.5742
lradius 47.3626
lwrist -4.23224
lhand -8.85685 -25.1871
lfingers 7.12502
lthumb 17.0842 4.08169
rfemur 0 0 0
rtibia 0
rfoot 0 0
rtoes 0
lfemur -5.62022 -8.53873 -4.7175
ltibia 26.8874
lfoot -21.9438 11.6889
ltoes -58.4633
353
root -1.42832 18.5779 6.18202 -0.948173 2.36363 -7.28568
lowerback 11.3985 2.71247 -3.76794
upperback 5.35284 3.19949 -0.318052
thorax -0.974573 1.54282 1.39766
lowerneck -1.40537 4.51386 3.74828
upperneck 47.2856 5.70441 2.62122
head 17.9965 3.31392 1.35533
rclavicle 4.6118e-014 1.59028e-014
rhumerus 8.7977 18.8598 -48.6406
rradius 142.691
rwrist -27.2507
rhand 12.4554 -26.3491
rfingers 7.12502
rthumb 37.4513 -52.2955
lclavicle 4.6118e-014 1.59028e-014
lhumerus -39.5659 7.71294 81.637
lradius 47.3891
lwrist -4.18634
lhand -8.89938 -25.1691
lfingers 7.12502
lthumb 17.0433 4.10322
rfemur 0 0 0
rtibia 0
rfoot 0 0
rtoes 0
lfemur -5.78209 -8.69799 -4.72952
ltibia 26.9991
lfoot -21.7497 11.2138
ltoes -58.5319
